<?xml version="1.0" standalone="no"?>
<!DOCTYPE svg PUBLIC "-//W3C//DTD SVG 20010904//EN"
 "http://www.w3.org/TR/2001/REC-SVG-20010904/DTD/svg10.dtd">
<svg version="1.0" xmlns="http://www.w3.org/2000/svg"
 width="246.000000pt" height="295.000000pt" viewBox="0 0 246.000000 295.000000"
 preserveAspectRatio="xMidYMid meet">
<metadata>
Created by potrace 1.16, written by Peter Selinger 2001-2019
</metadata>
<g transform="translate(0.000000,295.000000) scale(0.100000,-0.100000)"
fill="#000000" stroke="none">
<path d="M863 2660 c-95 -34 -157 -95 -187 -183 -27 -80 -18 -138 33 -219 l30
-47 -34 -75 c-19 -41 -35 -81 -35 -89 0 -10 16 -17 48 -22 174 -26 370 -94
605 -211 81 -41 152 -74 157 -74 10 0 28 59 32 105 3 25 7 30 28 27 174 -17
205 -13 283 39 72 47 101 105 102 198 0 56 -5 86 -20 116 -23 48 -84 108 -125
125 -29 12 -30 15 -24 55 8 60 -3 100 -39 141 -79 91 -211 112 -418 68 l-76
-16 -39 25 c-89 59 -219 74 -321 37z m253 -61 c112 -42 177 -129 177 -234 0
-56 1 -58 9 -25 14 51 5 130 -20 179 -12 23 -22 43 -22 45 0 12 156 28 234 24
95 -4 151 -24 189 -66 23 -25 31 -80 18 -116 -9 -23 -16 -27 -36 -24 -13 3
-41 2 -62 -2 l-38 -8 36 -1 c98 -3 199 -63 239 -142 24 -46 27 -141 5 -192
-18 -44 -69 -96 -114 -114 -50 -21 -125 -18 -263 12 -68 14 -132 29 -143 32
-49 13 6 -16 67 -36 68 -23 98 -44 79 -56 -6 -3 -25 2 -42 11 -43 22 -138 54
-158 53 -9 0 4 -9 29 -20 96 -43 170 -93 170 -116 0 -13 -3 -23 -6 -23 -3 0
-38 19 -77 42 -178 104 -361 173 -554 211 -94 18 -113 25 -113 40 0 27 45 132
77 180 48 70 48 70 25 58 -11 -6 -30 -23 -41 -38 -20 -27 -21 -27 -34 -8 -36
58 -36 134 1 205 64 126 225 182 368 129z"/>
<path d="M766 883 c-3 -54 -9 -160 -12 -235 l-7 -138 157 0 157 0 -6 48 c-22
185 -45 396 -45 408 0 11 -23 14 -119 14 l-118 0 -7 -97z m217 60 c3 -5 7 -51
8 -103 l4 -95 -42 -3 -43 -3 0 99 c0 54 3 102 7 105 9 9 61 9 66 0z m-122 -25
c4 -88 3 -178 -1 -179 -3 0 -21 -1 -40 -2 -39 -2 -37 -14 -32 138 l2 65 35 0
c29 0 35 -4 36 -22z"/>
</g>
</svg>
